<?xml version="1.0" encoding="utf-8"?>
<!-- Generator: Adobe Illustrator 27.0.0, SVG Export Plug-In . SVG Version: 6.00 Build 0)  -->
<svg version="1.1" id="Layer_1" xmlns="http://www.w3.org/2000/svg" xmlns:xlink="http://www.w3.org/1999/xlink" x="0px" y="0px"
	 viewBox="0 0 533.2 533.2" style="enable-background:new 0 0 533.2 533.2;" xml:space="preserve">
<style type="text/css">
	.st0{fill:#FFFFFF;}
</style>
<g>
	<path class="st0" d="M266.6,0c-72.4,0-81.5,0.3-109.9,1.6S108.9,7.4,92,14c-17.5,6.8-32.4,15.9-47.2,30.8C30,59.6,20.9,74.5,14,92
		c-6.6,17-11.1,36.3-12.4,64.7S0,194.2,0,266.6s0.3,81.5,1.6,109.9c1.3,28.4,5.8,47.8,12.4,64.7c6.8,17.5,15.9,32.4,30.8,47.2
		c14.8,14.8,29.7,23.9,47.2,30.8c17,6.6,36.3,11.1,64.7,12.4c28.4,1.3,37.5,1.6,109.9,1.6s81.5-0.3,109.9-1.6s47.8-5.8,64.7-12.4
		c17.5-6.8,32.4-15.9,47.2-30.8c14.8-14.8,23.9-29.7,30.8-47.2c6.6-17,11.1-36.3,12.4-64.7c1.3-28.4,1.6-37.5,1.6-109.9
		s-0.3-81.5-1.6-109.9s-5.8-47.8-12.4-64.7c-6.8-17.5-15.9-32.4-30.8-47.2C473.6,30,458.7,20.9,441.2,14
		c-17-6.6-36.3-11.1-64.7-12.4C348.1,0.3,339,0,266.6,0z M266.6,48.1c71.2,0,79.6,0.3,107.8,1.6c26,1.2,40.1,5.5,49.5,9.2
		c12.4,4.8,21.3,10.6,30.7,19.9c9.3,9.3,15.1,18.2,19.9,30.7c3.7,9.4,8,23.5,9.2,49.5c1.3,28.1,1.6,36.6,1.6,107.8
		s-0.3,79.6-1.6,107.8c-1.2,26-5.5,40.1-9.2,49.5c-4.8,12.4-10.6,21.3-19.9,30.7c-9.3,9.3-18.2,15.1-30.7,19.9
		c-9.4,3.7-23.5,8-49.5,9.2c-28.1,1.3-36.5,1.6-107.8,1.6s-79.6-0.3-107.8-1.6c-26-1.2-40.1-5.5-49.5-9.2
		c-12.4-4.8-21.3-10.6-30.7-19.9c-9.3-9.3-15.1-18.2-19.9-30.7c-3.7-9.4-8-23.5-9.2-49.5c-1.3-28.1-1.6-36.6-1.6-107.8
		s0.3-79.6,1.6-107.8c1.2-26,5.5-40.1,9.2-49.5c4.8-12.4,10.6-21.3,19.9-30.7c9.3-9.3,18.2-15.1,30.7-19.9c9.4-3.7,23.5-8,49.5-9.2
		C187,48.4,195.4,48.1,266.6,48.1"/>
	<path class="st0" d="M266.6,355.6c-49.1,0-88.9-39.8-88.9-88.9s39.8-88.9,88.9-88.9s88.9,39.8,88.9,88.9S315.7,355.6,266.6,355.6z
		 M266.6,129.8c-75.6,0-136.9,61.3-136.9,136.9S191,403.6,266.6,403.6s136.9-61.3,136.9-136.9S342.2,129.8,266.6,129.8 M440.9,124.4
		c0,17.7-14.3,32-32,32s-32-14.3-32-32s14.3-32,32-32C426.6,92.4,440.9,106.7,440.9,124.4"/>
</g>
</svg>
