<?xml version="1.0" encoding="utf-8"?>
<!-- Generator: Adobe Illustrator 27.0.0, SVG Export Plug-In . SVG Version: 6.00 Build 0)  -->
<svg version="1.1" id="Layer_1" xmlns="http://www.w3.org/2000/svg" xmlns:xlink="http://www.w3.org/1999/xlink" x="0px" y="0px"
	 viewBox="0 0 636.7 521.5" style="enable-background:new 0 0 636.7 521.5;" xml:space="preserve">
<style type="text/css">
	.st0{fill:#FFFFFF;}
</style>
<g id="XMLID_826_">
	<path id="XMLID_827_" class="st0" d="M622.4,60.1c-10,4.5-20.3,8.2-30.8,11.2c12.4-14.1,21.9-30.6,27.7-48.7
		c1.3-4.1-0.1-8.5-3.4-11.1s-8-2.9-11.6-0.8C582,23.9,557.9,33.4,532.7,39C507.2,14.2,472.7,0,437,0c-75.4,0-136.7,61.3-136.7,136.7
		c0,6,0.4,11.9,1.1,17.7c-93.5-8.2-180.5-54.2-240.2-127.4c-2.1-2.6-5.4-4-8.8-3.7c-3.3,0.2-6.4,2.1-8,5.1
		C32.3,49,25.8,72.8,25.8,97c0,33,11.8,64.2,32.6,88.6c-6.3-2.1-12.4-4.9-18.3-8.2c-3.1-1.8-7-1.8-10.1,0.1
		c-3.1,1.8-5.1,5.1-5.2,8.7c0,0.6,0,1.2,0,1.8c0,49.2,26.4,93.5,66.9,117.6c-3.5-0.3-6.9-0.9-10.4-1.5c-3.6-0.7-7.2,0.6-9.6,3.3
		s-3.2,6.5-2.1,10c15,46.7,53.5,81.1,100.1,91.6c-38.7,24.2-82.9,36.9-129.3,36.9c-9.7,0-19.4-0.6-29-1.7c-4.7-0.6-9.2,2.2-10.9,6.8
		c-1.6,4.5,0.1,9.6,4.1,12.1c59.6,38.2,128.6,58.4,199.3,58.4c139.1,0,226.2-65.7,274.8-120.7c60.5-68.6,95.2-159.5,95.2-249.3
		c0-3.7-0.1-7.6-0.2-11.3c23.9-18,44.4-39.7,61.1-64.8c2.5-3.8,2.2-8.8-0.7-12.3C631.5,59.4,626.6,58.3,622.4,60.1z"/>
</g>
</svg>
