<?xml version="1.0" encoding="utf-8"?>
<!-- Generator: Adobe Illustrator 27.0.0, SVG Export Plug-In . SVG Version: 6.00 Build 0)  -->
<svg version="1.1" id="Layer_1" xmlns="http://www.w3.org/2000/svg" xmlns:xlink="http://www.w3.org/1999/xlink" x="0px" y="0px"
	 viewBox="0 0 757 533.4" style="enable-background:new 0 0 757 533.4;" xml:space="preserve">
<style type="text/css">
	.st0{fill:#FFFFFF;}
</style>
<path class="st0" d="M741.1,83.3L741.1,83.3c-8.7-32.8-34.4-58.6-66.9-67.4C615.2,0,378.4,0,378.4,0S141.7,0,82.7,15.9
	c-32.6,8.8-58.2,34.6-66.9,67.4C0,142.8,0,266.7,0,266.7s0,124,15.8,183.4c8.7,32.8,34.4,58.6,66.9,67.4
	c59,15.9,295.7,15.9,295.7,15.9s236.7,0,295.8-15.9c32.6-8.8,58.2-34.6,66.9-67.4C757,390.7,757,266.7,757,266.7
	S757,142.8,741.1,83.3z M301,379.3V154.2l197.9,112.5L301,379.3z"/>
</svg>
